#N canvas 99 131 1195 747 10;
#X obj 363 146 random;
#X obj 415 147 random;
#X obj 469 147 random;
#X obj 530 147 random;
#X obj 359 46 bng 15 250 50 0 empty empty empty 17 7 0 10 -262144 -1
-1;
#X floatatom 363 181 5 0 0 0 - - -;
#X floatatom 413 183 5 0 0 0 - - -;
#X floatatom 468 189 5 0 0 0 - - -;
#X floatatom 531 190 5 0 0 0 - - -;
#X floatatom 563 100 5 0 0 0 - - -;
#X obj 382 364 random;
#X obj 434 365 random;
#X obj 488 365 random;
#X obj 549 365 random;
#X obj 378 264 bng 15 250 50 0 empty empty empty 17 7 0 10 -262144
-1 -1;
#X floatatom 382 399 5 0 0 0 - - -;
#X floatatom 432 401 5 0 0 0 - - -;
#X floatatom 487 407 5 0 0 0 - - -;
#X floatatom 550 408 5 0 0 0 - - -;
#X floatatom 582 318 5 0 0 0 - - -;
#X obj 189 333 metro 200;
#X obj 188 288 tgl 15 0 empty empty empty 17 7 0 10 -262144 -1 -1 0
1;
#X obj 362 472 f;
#X obj 419 475 f;
#X obj 480 476 f;
#X obj 531 488 f;
#X floatatom 207 411 5 0 0 0 - - -;
#X obj 203 376 counter 3;
#X obj 203 434 sel 0 1 2 3;
#X obj 201 465 bng 15 250 50 0 empty empty empty 17 7 0 10 -262144
-1 -1;
#X obj 224 469 bng 15 250 50 0 empty empty empty 17 7 0 10 -262144
-1 -1;
#X obj 249 470 bng 15 250 50 0 empty empty empty 17 7 0 10 -262144
-1 -1;
#X obj 272 474 bng 15 250 50 0 empty empty empty 17 7 0 10 -262144
-1 -1;
#X floatatom 371 516 5 0 0 0 - - -;
#X obj 372 549 + 64;
#X obj 415 559 mtof;
#X obj 489 572 phasor~;
#X obj 180 245 bng 15 250 50 0 empty empty empty 17 7 0 10 -262144
-1 -1;
#X obj 137 173 receive buttonB;
#X obj 704 281 receive shake;
#X obj 277 292 sel 1;
#X obj 611 519 sel 0;
#X msg 613 547 0;
#X msg 647 550 1;
#X obj 510 704 dac~;
#X obj 519 663 *~;
#X connect 0 0 5 0;
#X connect 1 0 6 0;
#X connect 2 0 7 0;
#X connect 3 0 8 0;
#X connect 4 0 0 0;
#X connect 4 0 1 0;
#X connect 4 0 2 0;
#X connect 4 0 3 0;
#X connect 9 0 3 1;
#X connect 9 0 2 1;
#X connect 9 0 1 1;
#X connect 9 0 0 1;
#X connect 10 0 15 0;
#X connect 11 0 16 0;
#X connect 12 0 17 0;
#X connect 13 0 18 0;
#X connect 14 0 10 0;
#X connect 14 0 11 0;
#X connect 14 0 12 0;
#X connect 14 0 13 0;
#X connect 15 0 22 1;
#X connect 16 0 23 1;
#X connect 17 0 24 1;
#X connect 18 0 25 1;
#X connect 19 0 13 1;
#X connect 19 0 12 1;
#X connect 19 0 11 1;
#X connect 19 0 10 1;
#X connect 20 0 27 0;
#X connect 21 0 20 0;
#X connect 21 0 40 0;
#X connect 22 0 33 0;
#X connect 23 0 33 0;
#X connect 24 0 33 0;
#X connect 25 0 33 0;
#X connect 26 0 28 0;
#X connect 27 0 26 0;
#X connect 28 0 29 0;
#X connect 28 1 30 0;
#X connect 28 2 31 0;
#X connect 28 3 32 0;
#X connect 29 0 22 0;
#X connect 30 0 23 0;
#X connect 31 0 24 0;
#X connect 32 0 25 0;
#X connect 33 0 34 0;
#X connect 33 0 41 0;
#X connect 34 0 35 0;
#X connect 35 0 36 0;
#X connect 36 0 45 0;
#X connect 37 0 21 0;
#X connect 38 0 37 0;
#X connect 39 0 19 0;
#X connect 40 0 14 0;
#X connect 41 0 42 0;
#X connect 41 1 43 0;
#X connect 42 0 45 1;
#X connect 43 0 45 1;
#X connect 45 0 44 0;
#X connect 45 0 44 1;
