#N canvas 170 23 1219 732 10;
#X msg 690 180 0 2 4 5 7 9 11;
#X msg 724 207 0 2 3 5 7 8 10;
#X msg 776 261 0 2 4 6 7 9 11;
#X msg 751 234 0 1 3 5 7 8 10;
#X text 792 180 Major (Ionian);
#X text 824 204 Minor (Aeolian);
#X text 876 261 Lydian;
#X msg 816 290 0 2 4 6 8 10;
#X text 852 233 Phrygian;
#X text 903 289 Whole Tone;
#X obj 661 578 prepend 0;
#X obj 667 401 t l l;
#X obj 737 428 list length;
#X obj 721 640 s \$0-scale;
#X msg 737 532 resize \$1;
#X text 743 576 <-- this tells the array \$0-scale to fill the array
elements starting at element 0;
#X text 808 531 <-- set the array size to the number of tones in the
scale octave.;
#X obj 750 467 s \$0-scale_length;
#N canvas 0 22 450 278 (subpatch) 0;
#X array \$0-scale 7 float 3;
#A 0 0 2 4 5 7 9 11;
#X coords 0 12 7 0 200 140 1 0 0;
#X restore 152 526 graph;
#X text 134 656 0;
#X text 130 518 12;
#X text 1058 666 .mmb;
#N canvas 0 23 450 300 guts 0;
#X obj 169 65 r \$0-scale_length;
#X floatatom 67 34 5 0 0 0 - - -, f 5;
#X obj 67 124 mod 7;
#X text 110 123 <-- [mod ] handles negative numbers differently than
[% ];
#X obj 142 167 div 7;
#X obj 67 67 t f f;
#X floatatom 199 219 5 0 0 0 - - -, f 5;
#X obj 67 282 tabread \$0-scale;
#X floatatom 67 458 5 0 0 0 - - -, f 5;
#X floatatom 30 185 5 0 0 0 - - -, f 5;
#X obj 142 220 * 12;
#X obj 67 356 +;
#X text 189 163 <-- division that discards the remainder. This tells
you what octave to use.;
#X obj 67 4 inlet;
#X obj 67 496 outlet;
#X obj 67 425 % 127;
#X obj 67 392 + 60;
#X connect 0 0 2 1;
#X connect 0 0 4 1;
#X connect 1 0 5 0;
#X connect 2 0 7 0;
#X connect 2 0 9 0;
#X connect 4 0 6 0;
#X connect 4 0 10 0;
#X connect 5 0 2 0;
#X connect 5 1 4 0;
#X connect 7 0 11 0;
#X connect 8 0 14 0;
#X connect 10 0 11 1;
#X connect 11 0 16 0;
#X connect 13 0 1 0;
#X connect 15 0 8 0;
#X connect 16 0 15 0;
#X restore 154 113 pd guts;
#X floatatom 154 87 5 0 0 0 - - -, f 5;
#X floatatom 154 164 5 0 0 0 - - -, f 5;
#X obj 154 192 mtof;
#X floatatom 154 232 5 0 0 0 - - -, f 5;
#X obj 154 337 *~;
#X obj 154 378 dac~;
#X obj 275 321 line~;
#X msg 275 298 1 \, 0 \$1;
#X obj 275 277 f;
#X obj 306 247 nbx 4 14 10 1000 1 1 empty empty empty 0 -8 0 10 -262144
-1 -1 119.709 256;
#X obj 275 247 bng 15 250 50 0 empty empty empty 17 7 0 10 -262144
-1 -1;
#X text 355 247 EG decay time (ms);
#X msg 154 52 0;
#X msg 183 52 1;
#X obj 154 285 osc~;
#X msg 214 53 2;
#X msg 243 53 3;
#X msg 272 53 4;
#X msg 301 53 5;
#X msg 332 54 6;
#X msg 361 54 7;
#X msg 393 56 8;
#X msg 423 56 9;
#X msg 455 58 10;
#X msg 485 57 11;
#X connect 0 0 11 0;
#X connect 1 0 11 0;
#X connect 2 0 11 0;
#X connect 3 0 11 0;
#X connect 7 0 11 0;
#X connect 10 0 13 0;
#X connect 11 0 10 0;
#X connect 11 1 12 0;
#X connect 12 0 14 0;
#X connect 12 0 17 0;
#X connect 14 0 13 0;
#X connect 22 0 24 0;
#X connect 23 0 22 0;
#X connect 24 0 25 0;
#X connect 25 0 26 0;
#X connect 26 0 33 0;
#X connect 26 0 37 0;
#X connect 27 0 28 0;
#X connect 27 0 28 1;
#X connect 29 0 27 1;
#X connect 30 0 29 0;
#X connect 31 0 30 0;
#X connect 32 0 31 1;
#X connect 33 0 31 0;
#X connect 35 0 23 0;
#X connect 36 0 23 0;
#X connect 37 0 27 0;
#X connect 38 0 23 0;
#X connect 39 0 23 0;
#X connect 40 0 23 0;
#X connect 41 0 23 0;
#X connect 42 0 23 0;
#X connect 43 0 23 0;
#X connect 44 0 23 0;
#X connect 45 0 23 0;
#X connect 46 0 23 0;
#X connect 47 0 23 0;
