#N canvas 487 181 882 549 10;
#X text -149 -224 MUS 6085 Interactivity with Sound & Music I;
#X text -149 -208 Dr. Rafael Hernandez;
#X text -149 -173 California State University East Bay;
#X text -149 -158 Multimedia Graduate Program;
#X text -150 -146 http://multimedia.csueastbay.edu;
#X text -150 -127 Department of Music;
#X text -150 -115 http://music.csueastbay.edu;
#X text -150 -95 This notice must be included with any usage of this
patch;
#X text -149 -196 rafael.hernandez@csueastbay.edu;
#X text -150 -73 This script requires the mrpeach flag and associated
externals;
#X obj -361 -162 unpack 0 0 0 0;
#X floatatom -361 -131 3 0 0 0 - - -;
#X floatatom -334 -131 3 0 0 0 - - -;
#X floatatom -307 -131 3 0 0 0 - - -;
#X floatatom -280 -131 3 0 0 0 - - -;
#X text -255 -130 IP address;
#X obj -534 -153 unpackOSC;
#X obj -534 -126 pipelist;
#X obj -534 -100 routeOSC /wii;
#X obj -534 -35 routeOSC /1;
#X text -538 -224 Wiimote & Nunchuk Script 1.) Connect with OSCulator
2.) Take in on port 9000 3.) Nerd out 4.) Rinse \, repeat;
#N canvas 0 23 1031 633 wiimote 0;
#X obj -396 28 routeOSC /button;
#X floatatom -396 122 5 0 0 0 - - -;
#X floatatom -333 152 5 0 0 0 - - -;
#X obj -396 57 routeOSC /A;
#X obj -333 87 routeOSC /B;
#X text -398 139 Wiimote A;
#X floatatom -270 182 5 0 0 0 - - -;
#X floatatom -201 212 5 0 0 0 - - -;
#X obj -270 117 routeOSC /Up;
#X obj -201 147 routeOSC /Right;
#X floatatom -114 242 5 0 0 0 - - -;
#X floatatom -34 272 5 0 0 0 - - -;
#X obj -114 177 routeOSC /Down;
#X obj -34 207 routeOSC /Left;
#X text -335 169 Wiimote B;
#X text -272 199 Wiimote Up;
#X text -203 229 Wiimote Right;
#X text -116 259 Wiimote Down;
#X text -36 289 Wiimote Left;
#X floatatom 47 302 5 0 0 0 - - -;
#X obj 47 237 routeOSC /Plus;
#X floatatom 128 332 5 0 0 0 - - -;
#X obj 128 267 routeOSC /Minus;
#X text 45 319 Wiimote Plus;
#X floatatom 215 362 5 0 0 0 - - -;
#X obj 215 297 routeOSC /Home;
#X text 213 379 Wiimote Home;
#X floatatom 296 392 5 0 0 0 - - -;
#X obj 296 327 routeOSC /1;
#X floatatom 359 422 5 0 0 0 - - -;
#X text 294 409 Wiimote 1;
#X text 357 439 Wiimote 2;
#X obj 359 357 routeOSC /2;
#X obj -524 28 routeOSC /accel;
#X obj -524 57 routeOSC /pry;
#X obj -524 96 unpack 0 0 0 0;
#X floatatom -524 122 10 0 0 0 - - -;
#X floatatom -507 169 10 0 0 0 - - -;
#X floatatom -484 212 10 0 0 0 - - -;
#X floatatom -467 259 10 0 0 0 - - -;
#X text -526 139 Wiimote Pitch;
#X text -510 185 Wiimote Roll;
#X text -486 229 Wiimote Yaw;
#X text -468 277 Wiimote Accel;
#X obj -524 -10 inlet;
#X obj -501 449 outlet;
#X text -452 448 If you want to go back to the main Canvas \, use outlets
;
#X connect 0 0 3 0;
#X connect 0 0 4 0;
#X connect 0 0 8 0;
#X connect 0 0 9 0;
#X connect 0 0 12 0;
#X connect 0 0 13 0;
#X connect 0 0 20 0;
#X connect 0 0 22 0;
#X connect 0 0 25 0;
#X connect 0 0 28 0;
#X connect 0 0 32 0;
#X connect 3 0 1 0;
#X connect 4 0 2 0;
#X connect 8 0 6 0;
#X connect 9 0 7 0;
#X connect 12 0 10 0;
#X connect 13 0 11 0;
#X connect 20 0 19 0;
#X connect 22 0 21 0;
#X connect 25 0 24 0;
#X connect 28 0 27 0;
#X connect 32 0 29 0;
#X connect 33 0 34 0;
#X connect 34 0 35 0;
#X connect 35 0 36 0;
#X connect 35 1 37 0;
#X connect 35 2 38 0;
#X connect 35 3 39 0;
#X connect 44 0 33 0;
#X connect 44 0 0 0;
#X restore -534 3 pd wiimote;
#X text -453 -39 <--On OSCulator it is the 1st controller \; You may
have to change this;
#X obj -534 -179 netreceive 9000;
#X connect 10 0 11 0;
#X connect 10 1 12 0;
#X connect 10 2 13 0;
#X connect 10 3 14 0;
#X connect 16 0 17 0;
#X connect 17 0 18 0;
#X connect 18 0 19 0;
#X connect 19 0 21 0;
#X connect 23 0 16 0;
#X connect 23 1 10 0;
